<?xml version="1.0" encoding="iso-8859-1"?>
<!-- Generator: Adobe Illustrator 21.0.0, SVG Export Plug-In . SVG Version: 6.00 Build 0)  -->
<svg xmlns="http://www.w3.org/2000/svg" xmlns:xlink="http://www.w3.org/1999/xlink" version="1.1" id="Capa_1" x="0px" y="0px" viewBox="0 0 512 512" style="enable-background:new 0 0 512 512;" xml:space="preserve" width="512" height="512">
<g>
	<g>
		<g>
			<g>
				<g>
					<g>
						<g>
							<g>
								<g>
									<g>
										<g>
											<g>
												<circle style="fill:#4BCDD7;" cx="256" cy="256" r="256"/>
											</g>
										</g>
									</g>
								</g>
							</g>
						</g>
					</g>
				</g>
			</g>
		</g>
	</g>
	<path style="fill:#00B8C1;" d="M168.687,300.452l-52.557,28.56l179.87,179.87c112.771-17.697,201.097-109.011,214.278-223.218   L358.232,133.617l-18.142,22.017l-69.089-69.089L243.84,193.687l-60.07-60.07l-30,111.993l85.944,85.944l-33.834,6.092   L168.687,300.452z"/>
	<g>
		<rect x="153.77" y="133.617" style="fill:#FFD2BF;" width="30" height="111.993"/>
	</g>
	<g>
		<rect x="328.232" y="133.617" style="fill:#FFB89C;" width="30" height="111.993"/>
	</g>
	<g>
		<rect x="241.001" y="86.545" style="fill:#FFD2BF;" width="30" height="111.993"/>
	</g>
	<g>
		<rect x="255.905" y="86.545" style="fill:#FFB89C;" width="15.096" height="111.993"/>
	</g>
	<g>
		<path style="fill:#FFBEAA;" d="M511.423,273.028c-73.852,39.158-254.046,105.13-510.582,3.734C11.411,408.436,121.606,512,256,512    C391.661,512,502.656,406.472,511.423,273.028z"/>
	</g>
	<g>
		<path style="fill:#FAA68E;" d="M255.905,330.468v181.531c0.032,0,0.063,0.001,0.095,0.001    c135.661,0,246.656-105.528,255.423-238.972C465.297,297.485,377.687,332.401,255.905,330.468z"/>
	</g>
	<g>
		
			<ellipse transform="matrix(0.1516 -0.9884 0.9884 0.1516 -207.8738 358.7168)" style="fill:#7E8596;" cx="105.028" cy="300.452" rx="30.959" ry="66.209"/>
	</g>
	<g>
		
			<ellipse transform="matrix(0.9884 -0.1516 0.1516 0.9884 -40.8456 65.1712)" style="fill:#707789;" cx="406.972" cy="300.452" rx="66.209" ry="30.959"/>
	</g>
	<g>
		
			<ellipse transform="matrix(0.0271 -0.9996 0.9996 0.0271 -74.0562 570.3784)" style="fill:#7E8596;" cx="256" cy="323.235" rx="30.958" ry="66.209"/>
	</g>
	<g>
		<path style="fill:#707789;" d="M256.837,292.288c-0.313-0.008-0.621-0.008-0.933-0.014v61.919    c36.214,0.795,65.821-12.188,66.28-29.164C322.647,307.938,293.39,293.279,256.837,292.288z"/>
	</g>
</g>















</svg>
