<?xml version="1.0" encoding="iso-8859-1"?>
<!-- Generator: Adobe Illustrator 21.0.0, SVG Export Plug-In . SVG Version: 6.00 Build 0)  -->
<svg xmlns="http://www.w3.org/2000/svg" xmlns:xlink="http://www.w3.org/1999/xlink" version="1.1" id="Capa_1" x="0px" y="0px" viewBox="0 0 512 512" style="enable-background:new 0 0 512 512;" xml:space="preserve" width="512" height="512">
<g>
	<g>
		<g>
			<g>
				<g>
					<g>
						<g>
							<g>
								<g>
									<g>
										<g>
											<g>
												<circle style="fill:#FF7045;" cx="256" cy="256" r="256"/>
											</g>
										</g>
									</g>
								</g>
							</g>
						</g>
					</g>
				</g>
			</g>
		</g>
	</g>
	<path style="fill:#DE4726;" d="M512,256c0-9.636-0.551-19.142-1.588-28.502l-86.731-86.731l-36.44,43.805L256,53.332l8.085,189.66   l-144.971-22.816l83.908,83.908L89.639,376.72l133.136,133.136C233.651,511.266,244.74,512,256,512   C397.385,512,512,397.385,512,256z"/>
	<g>
		<path style="fill:#FAA68E;" d="M256,257.817l22.049-3.669c66.597-11.081,129.566,33.926,140.644,100.523l3.668,22.049    l-22.049,3.669c-66.597,11.081-129.566-33.926-140.644-100.523L256,257.817z"/>
	</g>
	<g>
		<path style="fill:#FFBEAA;" d="M423.681,140.767l-3.914,22.01c-11.821,66.469-75.288,110.769-141.757,98.948L256,257.811    l3.915-22.01c11.821-66.469,75.288-110.769,141.757-98.948L423.681,140.767z"/>
	</g>
	<g>
		<path style="fill:#FFCDBE;" d="M88.319,140.767l3.914,22.01c11.821,66.469,75.288,110.769,141.757,98.948l22.01-3.914    l-3.914-22.01c-11.821-66.469-75.288-110.769-141.757-98.948L88.319,140.767z"/>
	</g>
	<g>
		<path style="fill:#FFBEAA;" d="M256,257.817l-22.049-3.669c-66.597-11.081-129.566,33.926-140.644,100.523l-3.668,22.049    l22.049,3.669c66.597,11.081,129.566-33.926,140.644-100.523L256,257.817z"/>
	</g>
	<g>
		<path style="fill:#FFBEAA;" d="M256,257.822l-15.808-15.808c-47.738-47.738-47.738-125.137,0-172.875L256,53.332l15.808,15.808    c47.738,47.738,47.738,125.137,0,172.875L256,257.822z"/>
	</g>
	<g>
		<path style="fill:#FAA68E;" d="M255.905,257.727l0.095,0.095l15.808-15.808c47.738-47.738,47.738-125.136,0-172.875L256,53.332    L255.905,257.727z"/>
	</g>
	<g>
		<path style="fill:#FFCDBE;" d="M256,460.523l-15.808-15.808c-47.738-47.738-47.738-125.137,0-172.875L256,256.033l15.808,15.808    c47.738,47.738,47.738,125.137,0,172.875L256,460.523z"/>
	</g>
	<g>
		<path style="fill:#FFBEAA;" d="M256,460.523l15.808-15.808c47.738-47.738,47.738-125.136,0-172.875L256,256.033l-0.095,0.095    L256,460.523z"/>
	</g>
</g>















</svg>
