<?xml version="1.0" encoding="iso-8859-1"?>
<!-- Generator: Adobe Illustrator 21.0.0, SVG Export Plug-In . SVG Version: 6.00 Build 0)  -->
<svg xmlns="http://www.w3.org/2000/svg" xmlns:xlink="http://www.w3.org/1999/xlink" version="1.1" id="Capa_1" x="0px" y="0px" viewBox="0 0 512 512" style="enable-background:new 0 0 512 512;" xml:space="preserve" width="512" height="512">
<g>
	<g>
		<g>
			<g>
				<g>
					<g>
						<g>
							<g>
								<g>
									<g>
										<g>
											<g>
												<circle style="fill:#FFBEAA;" cx="256" cy="256" r="256"/>
											</g>
										</g>
									</g>
								</g>
							</g>
						</g>
					</g>
				</g>
			</g>
		</g>
	</g>
	<path style="fill:#FAA68E;" d="M511.992,256.637l-150.18-150.18L337.517,132.8l-71.542-71.542l23.466,97.902l-106.571,9.796   l89.399,89.399l-104.374-15.218l56.822,56.821l-84.745,1.595l56.812,56.812l-89.676,29.075l123.289,123.289   C238.819,511.565,247.358,512,256,512C397.172,512,511.647,397.729,511.992,256.637z"/>
	<g>
		<ellipse style="fill:#555A66;" cx="256" cy="368.5" rx="158" ry="56.5"/>
	</g>
	<g>
		<path style="fill:#414952;" d="M256,312c-0.032,0-0.063,0-0.095,0V425c0.032,0,0.063,0,0.095,0c87.261,0,158-25.296,158-56.5    S343.261,312,256,312z"/>
	</g>
	<g>
		<ellipse style="fill:#636978;" cx="256" cy="286" rx="123.886" ry="44.301"/>
	</g>
	<g>
		<path style="fill:#555A66;" d="M256,241.699c-0.032,0-0.063,0-0.095,0V330.3c0.032,0,0.063,0,0.095,0    c68.42,0,123.886-19.834,123.886-44.301S324.42,241.699,256,241.699z"/>
	</g>
	<g>
		<ellipse style="fill:#7E8596;" cx="256" cy="229.937" rx="95.502" ry="34.151"/>
	</g>
	<g>
		<path style="fill:#707789;" d="M256,195.786c-0.032,0-0.063,0-0.095,0v68.301c0.032,0,0.063,0,0.095,0    c52.745,0,95.502-15.29,95.502-34.151C351.502,211.076,308.745,195.786,256,195.786z"/>
	</g>
	<g>
		<g>
			<path style="fill:#E9EDF5;" d="M361.812,106.457l-2.47,13.889c-7.46,41.944-47.509,69.899-89.453,62.439L256,180.315l2.47-13.889     c7.46-41.944,47.509-69.899,89.453-62.439L361.812,106.457z"/>
		</g>
		<g>
			<path style="fill:#FFFFFF;" d="M150.188,106.457l2.47,13.889c7.46,41.944,47.509,69.899,89.453,62.439l13.889-2.47l-2.47-13.889     c-7.46-41.944-47.509-69.899-89.453-62.439L150.188,106.457z"/>
		</g>
		<g>
			<path style="fill:#E6E6E6;" d="M256,180.322l-9.975-9.975c-30.124-30.124-30.124-78.965,0-109.089L256,51.283l9.975,9.975     c30.124,30.124,30.124,78.965,0,109.089L256,180.322z"/>
		</g>
		<g>
			<path style="fill:#D7D7D7;" d="M255.905,180.227l0.095,0.095l9.975-9.975c30.124-30.124,30.124-78.965,0-109.089L256,51.283     L255.905,180.227z"/>
		</g>
	</g>
</g>















</svg>
