<?xml version="1.0" encoding="iso-8859-1"?>
<!-- Generator: Adobe Illustrator 21.0.0, SVG Export Plug-In . SVG Version: 6.00 Build 0)  -->
<svg xmlns="http://www.w3.org/2000/svg" xmlns:xlink="http://www.w3.org/1999/xlink" version="1.1" id="Capa_1" x="0px" y="0px" viewBox="0 0 512 512" style="enable-background:new 0 0 512 512;" xml:space="preserve" width="512" height="512">
<g>
	<g>
		<g>
			<g>
				<g>
					<g>
						<g>
							<g>
								<g>
									<g>
										<g>
											<g>
												<circle style="fill:#FFBEAA;" cx="256" cy="256" r="256"/>
											</g>
										</g>
									</g>
								</g>
							</g>
						</g>
					</g>
				</g>
			</g>
		</g>
	</g>
	<path style="fill:#FAA68E;" d="M207.17,507.328C222.979,510.382,239.299,512,256,512c135.23,0,245.958-104.858,255.342-237.7   l-91.361-91.36l-5.86,17.038l-116.88-116.88L187.894,194.624l24.205,24.205l-1.79,1.084l-31.969-31.969L59.265,311.392   l30.746,30.746l-21.409,26.623L207.17,507.328z"/>
	<g>
		<g>
			<g>
				<rect x="195.089" y="187.944" style="fill:#707789;" width="30" height="59"/>
			</g>
			<g>
				<rect x="286.91" y="187.944" style="fill:#636978;" width="30" height="59"/>
			</g>
		</g>
		<g>
			<g>
				<path style="fill:#707789;" d="M205.102,174.11h100.236v-64.956c0-25.403-20.594-45.997-45.997-45.997h-8.242      c-25.403,0-45.997,20.594-45.997,45.997V174.11z"/>
			</g>
			<g>
				<path style="fill:#636978;" d="M305.338,109.153c0-25.403-20.594-45.997-45.997-45.997h-3.436v110.953h49.433V109.153z"/>
			</g>
			<g>
				
					<rect x="187.894" y="161.387" transform="matrix(-1 -4.485668e-11 4.485668e-11 -1 510.4395 356.0112)" style="fill:#7E8596;" width="134.651" height="33.237"/>
			</g>
			<g>
				<rect x="255.905" y="161.387" style="fill:#707789;" width="66.64" height="33.237"/>
			</g>
		</g>
	</g>
	<g>
		<g>
			<g>
				<g>
					<rect x="68.602" y="304.068" style="fill:#414952;" width="30" height="64.693"/>
				</g>
				<g>
					<rect x="169.283" y="304.068" style="fill:#414952;" width="30" height="64.693"/>
				</g>
			</g>
			<g>
				<g>
					
						<rect x="59.265" y="274.948" transform="matrix(-1 -4.483936e-11 4.483936e-11 -1 266.1741 586.3407)" style="fill:#636978;" width="147.643" height="36.444"/>
				</g>
				<g>
					<path style="fill:#555A66;" d="M78.133,311.392h109.908v-93.718c0-27.855-22.581-50.435-50.435-50.435h-9.038       c-27.855,0-50.435,22.581-50.435,50.435V311.392z"/>
				</g>
			</g>
		</g>
		<g>
			<g>
				<g>
					<rect x="314.428" y="304.068" style="fill:#333940;" width="30" height="64.693"/>
				</g>
				<g>
					<rect x="415.109" y="304.068" style="fill:#333940;" width="30" height="64.693"/>
				</g>
			</g>
			<g>
				<g>
					
						<rect x="305.091" y="274.948" transform="matrix(-1 -4.483936e-11 4.483936e-11 -1 757.8259 586.3407)" style="fill:#555A66;" width="147.643" height="36.444"/>
				</g>
				<g>
					<path style="fill:#414952;" d="M323.959,311.392h109.908v-93.718c0-27.855-22.581-50.435-50.435-50.435h-9.038       c-27.855,0-50.435,22.581-50.435,50.435V311.392z"/>
				</g>
			</g>
		</g>
	</g>
</g>















</svg>
